<svg xmlns="http://www.w3.org/2000/svg" viewBox="0 0 64 64" id="blog"><path fill="#5aaae7" d="M51 8v48a5 5 0 0 1-5 5H18a5 5 0 0 1-5-5V8a5 5 0 0 1 5-5h28a5 5 0 0 1 5 5Z"></path><path fill="#479fe3" d="M51 19.51V56a5 5 0 0 1-5 5H18a5 5 0 0 1-3.01-1.01 78.81 78.81 0 0 0 15.48-11.67A86.5 86.5 0 0 0 37.32 41 98.633 98.633 0 0 0 51 19.51Z"></path><path fill="#e6e7e8" d="M34 53h-4a2 2 0 0 0 0 4h4a2 2 0 0 0 0-4Z"></path><path fill="#3d9ae2" d="M51 41v8H32l-1.53-.68-2.47-1.1L23 45l5-2.22L32 41h19z"></path><path fill="#e6e7e8" d="M53 39a4 4 0 1 1 0 8h-2v-8Z"></path><path fill="#d1d3d4" d="M51 39v8h-4v-8h4z"></path><path fill="#00ccb3" d="M30 43h17v4H30z"></path><path fill="#00b39d" d="M30 39h17v4H30z"></path><path fill="#3d9ae2" d="M21 15h14v12H21z"></path><path fill="#ffd422" d="M19 13h14v12H19z"></path><path fill="#acabb1" d="M30 43v4l-4-1.78v-4.44L30 39v4z"></path><path fill="#898890" d="M26 40.78v4.44L21 43l5-2.22z"></path><path fill="#3d9ae2" d="M25 6h2v2h-2zM29 6h6v2h-6z"></path><path fill="#1e81ce" d="M36 12h10v2H36zM36 16h10v2H36zM36 20h10v2H36zM36 24h10v2H36zM18 30h4v2h-4zM24 30h10v2H24zM18 34h16v2H18z"></path></svg>